<svg xmlns="http://www.w3.org/2000/svg" version="1.1" xmlns:xlink="http://www.w3.org/1999/xlink" xmlns:svgjs="http://svgjs.dev/svgjs" width="1440" height="560" preserveAspectRatio="none" viewBox="0 0 1440 560"><g mask="url(&quot;#SvgjsMask1000&quot;)" fill="none"><rect width="1440" height="560" x="0" y="0" fill="#0e2a47"></rect><path d="M 0,210 C 57.6,173.8 172.8,19.6 288,29 C 403.2,38.4 460.8,252.6 576,257 C 691.2,261.4 748.8,59.2 864,51 C 979.2,42.8 1036.8,222.4 1152,216 C 1267.2,209.6 1382.4,58.4 1440,19L1440 560L0 560z" fill="#184a7e"></path><path d="M 0,375 C 96,410.2 288,545.2 480,551 C 672,556.8 768,426.6 960,404 C 1152,381.4 1344,431.2 1440,438L1440 560L0 560z" fill="#2264ab"></path></g><defs><mask id="SvgjsMask1000"><rect width="1440" height="560" fill="#ffffff"></rect></mask></defs></svg>